<?xml version="1.0" encoding="utf-8"?>
<!-- Generator: Adobe Illustrator 22.1.0, SVG Export Plug-In . SVG Version: 6.00 Build 0)  -->
<!DOCTYPE svg PUBLIC "-//W3C//DTD SVG 1.1//EN" "http://www.w3.org/Graphics/SVG/1.1/DTD/svg11.dtd" [
	<!ENTITY st0 "fill:#FFFFFF;">
	<!ENTITY st1 "opacity:0.71;fill:#A1A5D7;">
	<!ENTITY st2 "fill:#51536C;stroke:#A1A5D7;stroke-miterlimit:10;">
	<!ENTITY st3 "fill:none;stroke:#A1A5D7;stroke-miterlimit:10;">
]>
<svg version="1.1" id="Layer_1" xmlns="http://www.w3.org/2000/svg" xmlns:xlink="http://www.w3.org/1999/xlink" x="0px" y="0px"
	 viewBox="0 0 101 101" style="enable-background:new 0 0 101 101;" xml:space="preserve">
<rect x="0.5" y="0.5" style="&st0;" width="100" height="100"/>
<rect x="0.5" y="25.5" transform="matrix(-1.836970e-16 1 -1 -1.836970e-16 101 -9.023893e-13)" style="&st1;" width="100" height="50"/>
<rect x="0.5" y="25.5" transform="matrix(-1 -1.224647e-16 1.224647e-16 -1 101 101)" style="&st1;" width="100" height="50"/>
<line style="&st2;" x1="50.5" y1="0.5" x2="50.5" y2="100.5"/>
<line style="&st3;" x1="100.5" y1="50.5" x2="0.5" y2="50.5"/>
<line style="&st3;" x1="25.5" y1="1" x2="25.5" y2="101"/>
<line style="&st3;" x1="75.5" y1="0.5" x2="75.5" y2="100.5"/>
<polyline style="&st3;" points="100.5,0.5 100.5,100.5 0.5,100.5 0.5,0.5 0.5,0.5 100.5,0.5 "/>
<line style="&st3;" x1="100.5" y1="25" x2="0.5" y2="25"/>
<line style="&st3;" x1="100.5" y1="75.5" x2="0.5" y2="75.5"/>
<g>
</g>
<g>
</g>
<g>
</g>
<g>
</g>
<g>
</g>
<g>
</g>
<g>
</g>
<g>
</g>
<g>
</g>
<g>
</g>
<g>
</g>
<g>
</g>
<g>
</g>
<g>
</g>
<g>
</g>
</svg>
