<?xml version="1.0" encoding="utf-8"?>
<!-- Generator: Adobe Illustrator 22.1.0, SVG Export Plug-In . SVG Version: 6.00 Build 0)  -->
<!DOCTYPE svg PUBLIC "-//W3C//DTD SVG 1.1//EN" "http://www.w3.org/Graphics/SVG/1.1/DTD/svg11.dtd" [
	<!ENTITY st0 "fill:#325E43;">
	<!ENTITY st1 "fill:#FFFFFF;">
]>
<svg version="1.1" id="Layer_1" xmlns="http://www.w3.org/2000/svg" xmlns:xlink="http://www.w3.org/1999/xlink" x="0px" y="0px"
	 viewBox="0 0 100 37.5" style="enable-background:new 0 0 100 37.5;" xml:space="preserve">
<polygon style="&st0;" points="100,18.8 87.5,37.5 20.8,25 12.5,37.5 0,31.3 0,6.3 12.5,0 20.8,12.5 87.5,0 "/>
<g>
	<path style="&st1;" d="M40,22.3c-0.1,0.1-0.2,0.1-0.3,0.1c-0.1,0-0.2,0-0.2,0c-0.1,0-0.1,0-0.1-0.1c-0.1-0.1-0.2-0.5-0.3-1.1
		c-0.1-0.6-0.2-1.3-0.3-2c-0.2-2.3-0.3-3.5-0.4-3.6c-0.1,0.2-0.2,0.6-0.4,1.1c-0.2,0.5-0.4,1.2-0.6,2.1c-0.3,0.9-0.5,1.6-0.6,1.9
		c-0.1,0.3-0.3,0.6-0.4,0.6c-0.1,0.1-0.1,0.1-0.2,0.2c-0.1,0.1-0.2,0.1-0.2,0.1c-0.1,0-0.1,0-0.2,0s-0.1-0.1-0.1-0.2
		c0-0.1-0.1-0.5-0.2-1.1c-0.1-0.6-0.2-1.2-0.3-1.7L35.1,18c-0.1-1-0.2-1.6-0.3-1.7c-0.2,0.1-0.3,0.4-0.4,0.9c-0.1,0.5-0.3,1.1-0.5,2
		c-0.2,0.7-0.4,1.7-0.6,3.2c0,0.1-0.1,0.2-0.2,0.2c-0.1,0.1-0.2,0.1-0.3,0.1c-0.1,0-0.2-0.1-0.2-0.4c0-0.2-0.1-0.8-0.2-1.6
		s-0.2-1.5-0.3-2.2c-0.1-0.9-0.3-1.7-0.5-2.5c-0.1-0.2-0.1-0.4-0.1-0.4c0-0.1,0.1-0.2,0.2-0.3c0.1-0.1,0.2-0.1,0.4-0.1
		c0.1,0,0.1,0.2,0.2,0.7c0.1,0.5,0.1,1.1,0.2,1.9l0,0.4c0,0.3,0.1,0.5,0.1,0.8c0.2,1.2,0.2,2,0.3,2.3c0.2-0.9,0.3-1.9,0.5-2.8
		l0.1-0.5c0.2-0.8,0.4-1.5,0.6-1.9c0.2-0.4,0.5-0.7,0.8-0.7c0.1,0,0.2,0.3,0.3,0.8s0.2,1.2,0.3,1.9c0.1,0.5,0.1,1,0.2,1.5
		c0.1,0.5,0.2,0.8,0.2,1c0-0.1,0.1-0.4,0.3-0.9c0.1-0.5,0.3-0.9,0.4-1.3c0.4-1.3,0.8-2.5,1.2-3.6c0.1-0.2,0.2-0.3,0.2-0.4
		c0.1-0.1,0.2-0.1,0.4-0.1c0.1,0,0.2,0.5,0.3,1.4c0.1,0.9,0.2,2,0.3,3.2c0.2,1.7,0.4,2.6,0.6,2.8c0.1,0.1,0.2,0.2,0.2,0.3
		C40.2,22.2,40.1,22.2,40,22.3z"/>
	<path style="&st1;" d="M46.2,22.1c0.1,0.1,0.1,0.1,0.1,0.2c0,0.1,0,0.2-0.1,0.3c-0.1,0.1-0.2,0.2-0.2,0.2c-0.1,0-0.2-0.1-0.3-0.3
		c-0.1-0.2-0.1-0.4-0.1-0.6c0-0.2,0-0.8,0-1.7l0-0.5c0-0.2,0-0.3-0.1-0.4c-0.4,0.6-0.7,1.1-1,1.6c-0.3,0.4-0.7,0.9-1.2,1.3
		c-0.5,0.4-1,0.6-1.5,0.6c-0.3,0-0.5-0.1-0.6-0.2c-0.1-0.2-0.2-0.4-0.2-0.6c0-0.3,0.1-0.8,0.4-1.3c0.3-0.6,0.7-1.1,1.1-1.7
		c0.4-0.6,0.9-1,1.3-1.4c0.3-0.2,0.5-0.4,0.7-0.5s0.3-0.1,0.5-0.1c0.1,0,0.3,0,0.4,0.1c0.1,0.1,0.3,0.2,0.3,0.3
		c0.1,0.1,0.1,0.3,0.1,0.5c0,0.2-0.1,0.5-0.2,0.7l0.2-0.1c0.1,0,0.1,0.1,0.2,0.3c0,0.1,0,0.4,0,0.8c0,0.4,0,0.7,0,1
		c0,0.3,0,0.5,0,0.8c0,0.2,0,0.4,0,0.6C46.1,22,46.2,22.1,46.2,22.1z M43.1,21.7c0.4-0.3,0.8-0.7,1.1-1.1c0.3-0.4,0.7-1,1-1.6
		c0.1-0.2,0.1-0.5,0.1-0.8c0-0.2,0-0.3-0.1-0.4c-0.1-0.1-0.2-0.2-0.4-0.2c-0.2,0-0.5,0.1-0.8,0.4c-0.4,0.3-0.7,0.7-1.1,1.2
		c-0.4,0.5-0.7,1-1,1.5c-0.3,0.5-0.4,0.9-0.4,1.2c0,0.2,0.1,0.4,0.3,0.4C42.3,22.2,42.7,22,43.1,21.7z"/>
	<path style="&st1;" d="M52.7,18.1c-0.1,0.1-0.3,0.1-0.6,0.2c-0.7,0.1-1.1,0.2-1.2,0.2L50,18.6c0,0.4,0,0.9,0,1.3
		c0,0.5,0,0.9,0.1,1.2c0,0.5,0.1,0.8,0.2,1.1c0.1,0.2,0.1,0.4,0.1,0.4c0,0.1,0,0.2-0.1,0.2c-0.1,0.1-0.2,0.1-0.3,0.1
		c0,0-0.1,0-0.1,0c0,0-0.1-0.1-0.1-0.1c0-0.1-0.1-0.3-0.1-0.6s-0.1-0.6-0.1-1c0-0.3,0-0.7-0.1-1.1c0-0.4,0-0.9,0-1.3
		c-0.4,0.1-0.9,0.2-1.4,0.3c-0.4,0.1-0.7,0.1-0.8,0.1c-0.1,0-0.2,0-0.3-0.1s-0.1-0.1-0.1-0.2c0-0.1,0-0.2,0.1-0.2c0.1,0,0.2,0,0.4,0
		c0.1,0,0.3,0,0.5-0.1c0.2,0,0.4-0.1,0.4-0.1c0.5-0.1,0.9-0.2,1.1-0.2c0-0.2,0-0.4,0-0.7c0-0.4,0-0.6,0-0.8c0-0.3,0-0.6,0-0.7
		c0-0.2,0.1-0.3,0.1-0.5c0.1-0.2,0.2-0.2,0.4-0.2c0.1,0,0.1,0,0.1,0s0,0.1,0,0.1c0,0,0,0.2-0.1,0.4c0,0.2-0.1,0.5-0.1,0.9
		c0,0.3,0,0.6,0,1l0,0.3c0.4-0.1,1.1-0.2,2.1-0.4c0.1,0,0.1-0.1,0.2-0.2c0-0.1,0.1-0.1,0.1-0.1c0.1,0,0.2,0,0.3,0.1
		c0.1,0.1,0.1,0.2,0.1,0.3C52.8,17.9,52.8,18,52.7,18.1z"/>
	<path style="&st1;" d="M58.6,18.1c-0.1,0.1-0.3,0.1-0.6,0.2c-0.7,0.1-1.1,0.2-1.2,0.2l-0.8,0.1c0,0.4,0,0.9,0,1.3
		c0,0.5,0,0.9,0.1,1.2c0,0.5,0.1,0.8,0.2,1.1s0.1,0.4,0.1,0.4c0,0.1-0.1,0.2-0.2,0.2c-0.1,0.1-0.2,0.1-0.3,0.1c0,0-0.1,0-0.1,0
		s-0.1-0.1-0.1-0.1c0-0.1-0.1-0.3-0.1-0.6s-0.1-0.6-0.1-1c0-0.3,0-0.7-0.1-1.1c0-0.4,0-0.9,0-1.3c-0.4,0.1-0.9,0.2-1.4,0.3
		c-0.4,0.1-0.7,0.1-0.8,0.1c-0.1,0-0.2,0-0.3-0.1s-0.1-0.1-0.1-0.2c0-0.1,0-0.2,0.1-0.2c0.1,0,0.2,0,0.4,0c0.1,0,0.3,0,0.5-0.1
		c0.2,0,0.4-0.1,0.4-0.1c0.5-0.1,0.9-0.2,1.1-0.2c0-0.2,0-0.4,0-0.7c0-0.4,0-0.6,0-0.8c0-0.3,0-0.6,0-0.7c0-0.2,0.1-0.3,0.1-0.5
		c0.1-0.2,0.2-0.2,0.4-0.2c0.1,0,0.1,0,0.1,0c0,0,0,0.1,0,0.1c0,0,0,0.2-0.1,0.4c0,0.2-0.1,0.5-0.1,0.9c0,0.3,0,0.6,0,1l0,0.3
		c0.4-0.1,1.1-0.2,2.1-0.4c0.1,0,0.1-0.1,0.2-0.2c0-0.1,0.1-0.1,0.1-0.1c0.1,0,0.2,0,0.3,0.1s0.1,0.2,0.1,0.3
		C58.8,17.9,58.7,18,58.6,18.1z"/>
	<path style="&st1;" d="M68.4,18.9c-0.2,0-0.8,0.1-1.6,0.3s-1.5,0.3-1.8,0.4c0,0.2,0,0.5,0,1.1c0,0.6,0,1,0,1.4c0,0.2,0,0.3,0.1,0.5
		c0,0.2,0,0.3,0.1,0.4c0,0.3,0.1,0.5,0.1,0.5c0,0.1,0,0.2-0.1,0.4s-0.2,0.3-0.2,0.3s-0.1,0-0.2-0.1c0-0.1-0.1-0.1-0.1-0.2
		c-0.1-0.4-0.1-0.9-0.2-1.8c0-1-0.1-1.8-0.1-2.3c0,0-0.1,0-0.2,0c-0.1,0-0.2,0-0.3,0c-0.1,0-0.2,0-0.3-0.1s-0.1-0.1-0.1-0.1
		c0-0.1,0-0.1,0.1-0.1c0,0,0.1-0.1,0.1-0.1c0.1,0,0.1,0,0.1,0c0.3-0.1,0.5-0.2,0.6-0.2l-0.1-2.7c-0.6,0.1-1,0.1-1.3,0.1
		c-0.3,0-0.5-0.1-0.6-0.2c-0.1-0.2-0.2-0.3-0.2-0.4c0-0.1,0.1-0.1,0.2-0.1c0,0,0.1,0,0.3,0.1c0.2,0.1,0.3,0.1,0.5,0.1
		c0.3,0,0.7,0,1.2-0.1c0,0,0-0.1,0-0.2c0-0.1,0-0.2,0.1-0.3c0-0.1,0.1-0.1,0.1-0.1c0,0,0.1,0,0.1,0c0.2,0,0.2,0.2,0.2,0.5
		c0.1,0,0.4-0.1,0.8-0.1c0.4-0.1,0.9-0.1,1.4-0.2s1-0.1,1.3-0.1c0.3,0,0.5,0.1,0.5,0.2c0,0.1,0,0.2-0.1,0.4
		c-0.1,0.2-0.1,0.2-0.2,0.2c0,0-0.1,0-0.1-0.1c0,0-0.1-0.1-0.1-0.1c-0.1,0-0.2,0-0.3,0c-0.2,0-0.7,0.1-1.5,0.2
		c-0.7,0.1-1.3,0.2-1.6,0.3l0.1,2.6c0.4-0.1,1.1-0.3,2-0.5c0.9-0.2,1.4-0.3,1.6-0.3c0.1,0,0.1,0,0.1,0s0,0.1,0,0.1
		C68.7,18.8,68.6,18.9,68.4,18.9z"/>
	<path style="&st1;" d="M73.7,21.3c-0.2,0.4-0.6,0.8-1,1c-0.4,0.3-0.9,0.4-1.5,0.4c-0.5,0-0.9-0.1-1.2-0.4s-0.4-0.7-0.4-1.1
		c0-0.4,0.1-0.9,0.2-1.4c0.1-0.6,0.3-1.1,0.6-1.5c0,0,0.1-0.1,0.2-0.4s0.2-0.4,0.4-0.5c0.1-0.1,0.3-0.2,0.5-0.2c0.1,0,0.1,0,0.2,0.1
		c0.1,0,0.1,0.1,0.1,0.1c0,0,0,0.1-0.1,0.1c0,0.1-0.1,0.1-0.1,0.1c-0.3,0.3-0.5,0.7-0.7,1c-0.2,0.4-0.4,0.8-0.5,1.2
		c-0.1,0.4-0.2,0.8-0.2,1.3c0,0.6,0.4,0.9,1.2,0.9c0.4,0,0.7-0.1,1-0.3s0.6-0.5,0.7-0.8c0.2-0.3,0.3-0.6,0.3-0.8
		c0-0.3-0.1-0.5-0.3-0.7c-0.2-0.2-0.4-0.4-0.8-0.7c-0.2-0.2-0.4-0.3-0.5-0.4c-0.1-0.1-0.1-0.2-0.1-0.2c0-0.1,0.1-0.2,0.2-0.2
		s0.3-0.1,0.5-0.1c0.1,0,0.2,0,0.2,0c0,0,0,0,0,0.1c0,0,0,0,0,0.1c0,0,0,0.1,0,0.1c0,0,0.1,0.1,0.2,0.2c0.3,0.3,0.6,0.5,0.8,0.8
		s0.3,0.6,0.3,1C74.1,20.6,74,20.9,73.7,21.3z"/>
	<path style="&st1;" d="M76.1,22.6c-0.1,0-0.2,0.1-0.3,0.1c-0.1,0-0.2-0.1-0.3-0.3c-0.1-0.2-0.1-0.6-0.1-1c0-0.9,0-2,0-3.3
		c0-1.3,0-2.2,0.1-2.9c0-0.2,0-0.4,0.1-0.6c0.1-0.2,0.2-0.3,0.4-0.3c0.1,0,0.1,0,0.1,0.1c0,0.1,0,0.2,0,0.4c0,0,0,0,0,0.1
		c0,0,0,0.1,0,0.2c-0.1,2.1-0.2,4.2-0.2,6.2c0,0.3,0.1,0.5,0.2,0.8c0.1,0.3,0.2,0.4,0.2,0.5C76.2,22.5,76.2,22.6,76.1,22.6z"/>
	<path style="&st1;" d="M82.1,19.9c0,0.1-0.1,0.5-0.3,0.9c-0.2,0.5-0.5,0.9-1,1.4s-1,0.6-1.6,0.6c-0.5,0-0.9-0.2-1.3-0.5
		c-0.3-0.3-0.5-0.8-0.5-1.5c0-0.6,0.1-1.2,0.4-1.9c0.3-0.6,0.7-1.1,1.1-1.5c0.5-0.4,0.9-0.6,1.4-0.6c0.3,0,0.5,0.1,0.8,0.2
		s0.3,0.3,0.3,0.6c0,0.3-0.2,0.6-0.5,0.8c-0.3,0.3-0.7,0.5-1.2,0.7c-0.5,0.2-1,0.3-1.6,0.4c-0.1,0.4-0.1,0.7-0.1,1.1
		c0,0.5,0.1,0.8,0.3,1.1c0.2,0.3,0.5,0.4,0.9,0.4c0.6,0,1.1-0.2,1.5-0.7c0.4-0.4,0.7-0.9,1-1.5c0,0,0-0.1,0.1-0.2
		c0-0.1,0.1-0.1,0.1-0.1C82,19.7,82.1,19.7,82.1,19.9z M80.7,17.5c-0.1-0.1-0.3-0.1-0.5-0.1c-0.3,0-0.6,0.1-0.9,0.3
		c-0.3,0.2-0.5,0.4-0.7,0.7c-0.2,0.3-0.3,0.5-0.4,0.7c0.4,0,0.8-0.1,1.2-0.3c0.4-0.2,0.8-0.4,1-0.6c0.3-0.2,0.4-0.4,0.4-0.5
		S80.9,17.6,80.7,17.5z"/>
	<path style="&st1;" d="M86.9,18.6c-0.1,0.7-0.1,1.1-0.2,1.2c-0.1,1-0.2,1.7-0.2,2.3c0,0.5-0.1,1-0.1,1.4c0,0.3,0,0.6,0.1,0.8
		s0.1,0.4,0.2,0.5c0.1,0.1,0.1,0.2,0.1,0.2c0,0.1-0.1,0.1-0.2,0.2s-0.3,0.1-0.4,0.1c-0.1,0-0.2-0.1-0.2-0.4
		c-0.1-0.3-0.1-0.7-0.1-1.3c0-0.4,0-1.1,0.1-1.8l0.2-1.7c-0.2,0.4-0.5,0.8-0.8,1.2c-0.3,0.4-0.6,0.6-1,0.6c-0.3,0-0.6-0.3-0.8-0.8
		s-0.4-1.2-0.6-1.8c-0.1-0.7-0.2-1.2-0.2-1.5c0-0.2,0.1-0.3,0.2-0.3c0.2,0,0.3,0.2,0.3,0.5c0.3,2.2,0.7,3.3,1.3,3.3
		c0.2,0,0.4-0.1,0.6-0.3s0.4-0.4,0.6-0.8c0.1-0.2,0.2-0.4,0.3-0.7c0.1-0.3,0.2-0.5,0.3-0.7l0.1-1.2c0-0.2,0-0.3,0.1-0.4
		c0-0.1,0.1-0.1,0.2-0.1c0.1,0,0.2,0,0.2,0.1c0.1,0.1,0.1,0.2,0.1,0.3C87,17.6,86.9,18,86.9,18.6z"/>
</g>
<g>
</g>
<g>
</g>
<g>
</g>
<g>
</g>
<g>
</g>
<g>
</g>
<g>
</g>
<g>
</g>
<g>
</g>
<g>
</g>
<g>
</g>
<g>
</g>
<g>
</g>
<g>
</g>
<g>
</g>
</svg>
